0
SECTION
2
HEADER
9
$INSUNITS
70
4
9
$ACADVER
1
AC1014
9
$HANDSEED
5
FFFF
0
ENDSEC
0
SECTION
2
TABLES
0
TABLE
2
VPORT
5
8
100
AcDbSymbolTable
0
ENDTAB
0
TABLE
2
LTYPE
5
5
100
AcDbSymbolTable
0
LTYPE
5
14
100
AcDbSymbolTableRecord
100
AcDbLinetypeTableRecord
2
BYBLOCK
70
0
0
LTYPE
5
15
100
AcDbSymbolTableRecord
100
AcDbLinetypeTableRecord
2
BYLAYER
70
0
0
ENDTAB
0
TABLE
2
LAYER
5
2
100
AcDbSymbolTable
70
2
0
LAYER
5
50
100
AcDbSymbolTableRecord
100
AcDbLayerTableRecord
2
0
70
0
6
CONTINUOUS
0
ENDTAB
0
TABLE
2
STYLE
5
3
100
AcDbSymbolTable
70
1
0
STYLE
5
11
100
AcDbSymbolTableRecord
100
AcDbTextStyleTableRecord
2
STANDARD
70
0
0
ENDTAB
0
TABLE
2
VIEW
5
6
100
AcDbSymbolTable
70
0
0
ENDTAB
0
TABLE
2
UCS
5
7
100
AcDbSymbolTable
70
0
0
ENDTAB
0
TABLE
2
APPID
5
9
100
AcDbSymbolTable
70
2
0
APPID
5
12
100
AcDbSymbolTableRecord
100
AcDbRegAppTableRecord
2
ACAD
70
0
0
ENDTAB
0
TABLE
2
DIMSTYLE
5
A
100
AcDbSymbolTable
70
1
0
ENDTAB
0
TABLE
2
BLOCK_RECORD
5
1
100
AcDbSymbolTable
70
1
0
BLOCK_RECORD
5
1F
100
AcDbSymbolTableRecord
100
AcDbBlockTableRecord
2
*MODEL_SPACE
0
BLOCK_RECORD
5
1B
100
AcDbSymbolTableRecord
100
AcDbBlockTableRecord
2
*PAPER_SPACE
0
ENDTAB
0
ENDSEC
0
SECTION
2
BLOCKS
0
BLOCK
5
20
100
AcDbEntity
100
AcDbBlockBegin
2
*MODEL_SPACE
0
ENDBLK
5
21
100
AcDbEntity
100
AcDbBlockEnd
0
BLOCK
5
1C
100
AcDbEntity
100
AcDbBlockBegin
2
*PAPER_SPACE
0
ENDBLK
5
1D
100
AcDbEntity
100
AcDbBlockEnd
0
ENDSEC
0
SECTION
2
ENTITIES
0
LWPOLYLINE
5
100
100
AcDbEntity
8
0
100
AcDbPolyline
90
4
70
1
43
0.0
10
153
20
-10
10
156
20
-10
10
156
20
-20
10
153
20
-20
0
LWPOLYLINE
5
101
100
AcDbEntity
8
0
100
AcDbPolyline
90
8
70
1
43
0.0
10
-105
20
-256
10
-105
20
-264
10
-114
20
-264
10
-114
20
-265.00000000000006
10
-104
20
-265.00000000000006
10
-104
20
-255.00000000000003
10
-114
20
-255.00000000000003
10
-114
20
-256
0
LWPOLYLINE
5
102
100
AcDbEntity
8
0
100
AcDbPolyline
90
16
70
1
43
0.0
10
119.99999999999999
20
-210
42
-0.41421356237309492
10
90
20
-240
10
-90
20
-240
42
-0.41421356237309492
10
-120
20
-210
10
-120
20
-40
42
0.41421356237309531
10
-130
20
-30
10
-180
20
-30.000000000000018
42
-0.4142135623730932
10
-190
20
-20.000000000000007
10
-190
20
-10.000000000000027
42
-0.41421356237309914
10
-179.99999999999997
20
6.6613381477509392e-15
10
180.00000000000003
20
-8.8817841970012523e-15
42
-0.4142135623730957
10
190
20
-9.9999999999999964
10
190
20
-20
42
-0.41421356237309453
10
180
20
-30
10
130
20
-29.999999999999993
42
0.41421356237309531
10
120
20
-40
0
LWPOLYLINE
5
103
100
AcDbEntity
8
0
100
AcDbPolyline
90
8
70
1
43
0.0
10
-91
20
-255.00000000000003
10
-91
20
-256
10
-82.000000000000014
20
-256
10
-82.000000000000014
20
-264
10
-91
20
-264
10
-91
20
-265.00000000000006
10
-81
20
-265.00000000000006
10
-81
20
-255.00000000000003
0
LWPOLYLINE
5
104
100
AcDbEntity
8
0
100
AcDbPolyline
90
4
70
1
43
0.0
10
-156
20
-20
10
-153
20
-20
10
-153
20
-10
10
-156
20
-10
0
LWPOLYLINE
5
105
100
AcDbEntity
8
0
100
AcDbPolyline
90
8
70
1
43
0.0
10
-115
20
-245
10
115
20
-245
42
-0.41421356237309453
10
125
20
-255
10
124.99999999999999
20
-265
42
-0.41421356237309453
10
115
20
-275
10
-115
20
-275
42
-0.41421356237309453
10
-125
20
-265
10
-124.99999999999999
20
-255
42
-0.41421356237309453
0
LWPOLYLINE
5
106
100
AcDbEntity
8
0
100
AcDbPolyline
90
4
70
1
43
0.0
10
-130
20
-10
10
-133
20
-10
10
-133
20
-20
10
-130
20
-20
0
LWPOLYLINE
5
107
100
AcDbEntity
8
0
100
AcDbPolyline
90
8
70
1
43
0.0
10
-183
20
-17.999999999999968
10
-182.99999999999997
20
-12.000000000000075
42
-0.41421356237305273
10
-182
20
-11.000000000000016
10
-179.00000000000006
20
-11.000000000000039
42
-0.41421356237311063
10
-178
20
-12.000000000000071
10
-178
20
-17.999999999999968
42
-0.41421356237312235
10
-179.00000000000009
20
-19.000000000000018
10
-182
20
-19.000000000000007
42
-0.41421356237312235
0
LWPOLYLINE
5
108
100
AcDbEntity
8
0
100
AcDbPolyline
90
12
70
1
43
0.0
10
86.000000000000014
20
-218.5
10
84.000000000000043
20
-218.5
10
84.000000000000043
20
-215
10
90
20
-215
10
90
20
-235
10
84.000000000000043
20
-235
10
84.000000000000043
20
-231.50000000000006
10
86.000000000000014
20
-231.50000000000006
10
86.000000000000014
20
-233
10
88
20
-233
10
88
20
-217.00000000000003
10
86.000000000000014
20
-217.00000000000003
0
LWPOLYLINE
5
109
100
AcDbEntity
8
0
100
AcDbPolyline
90
15
70
1
43
0.0
10
-173
20
-7.0000000000000187
10
-173
20
-5.0000000000000178
10
-167.00000000000003
20
-5.0000000000000178
10
-167.00000000000003
20
-7.0000000000000018
10
-167.00000000000003
20
-25.000000000000014
10
-173
20
-25.000000000000018
10
-173
20
-23.000000000000011
10
-173
20
-21.500000000000018
10
-171
20
-21.500000000000018
10
-171
20
-23.000000000000011
10
-169.00000000000003
20
-23.000000000000011
10
-169.00000000000003
20
-7.0000000000000151
10
-171
20
-7.0000000000000187
10
-171
20
-8.500000000000016
10
-173
20
-8.500000000000016
0
LWPOLYLINE
5
110
100
AcDbEntity
8
0
100
AcDbPolyline
90
8
70
1
43
0.0
10
74.000000000000014
20
-222.00000000000017
42
-0.41421356237307944
10
75.000000000000043
20
-221.00000000000009
10
77.999999999999957
20
-221.00000000000011
42
-0.41421356237311324
10
79
20
-222.00000000000017
10
78.999999999999986
20
-228.00000000000011
42
-0.41421356237310802
10
77.999999999999957
20
-229.00000000000009
10
75.000000000000043
20
-229.00000000000011
42
-0.41421356237310802
10
74
20
-228.00000000000011
0
LWPOLYLINE
5
111
100
AcDbEntity
8
0
100
AcDbPolyline
90
15
70
1
43
0.0
10
167.00000000000003
20
-7.0000000000000018
10
167.00000000000003
20
-25.000000000000014
10
173
20
-25.000000000000018
10
173
20
-23.000000000000011
10
173
20
-21.500000000000018
10
171
20
-21.500000000000018
10
171
20
-23.000000000000011
10
169.00000000000003
20
-23.000000000000011
10
169.00000000000003
20
-7.0000000000000151
10
171
20
-7.0000000000000187
10
171
20
-8.500000000000016
10
173
20
-8.500000000000016
10
173
20
-7.0000000000000187
10
173
20
-5.0000000000000178
10
167.00000000000003
20
-5.0000000000000178
0
LWPOLYLINE
5
112
100
AcDbEntity
8
0
100
AcDbPolyline
90
8
70
1
43
0.0
10
114
20
-255.00000000000003
10
104
20
-255.00000000000003
10
104
20
-265.00000000000006
10
114
20
-265.00000000000006
10
114
20
-264
10
105
20
-264
10
105
20
-256
10
114
20
-256
0
LWPOLYLINE
5
113
100
AcDbEntity
8
0
100
AcDbPolyline
90
8
70
1
43
0.0
10
82.000000000000014
20
-256
10
91
20
-256
10
91
20
-255.00000000000003
10
81
20
-255.00000000000003
10
81
20
-265.00000000000006
10
91
20
-265.00000000000006
10
91
20
-264
10
82.000000000000014
20
-264
0
LWPOLYLINE
5
114
100
AcDbEntity
8
0
100
AcDbPolyline
90
4
70
1
43
0.0
10
133
20
-20
10
130
20
-20
10
130
20
-10
10
133
20
-10
0
LWPOLYLINE
5
115
100
AcDbEntity
8
0
100
AcDbPolyline
90
12
70
1
43
0.0
10
-84.000000000000043
20
-231.50000000000006
10
-86.000000000000014
20
-231.50000000000006
10
-86.000000000000014
20
-233
10
-88
20
-233
10
-88
20
-217.00000000000003
10
-86.000000000000014
20
-217.00000000000003
10
-86.000000000000014
20
-218.5
10
-84.000000000000043
20
-218.5
10
-84.000000000000043
20
-215
10
-90
20
-215
10
-90
20
-235
10
-84.000000000000043
20
-235
0
LWPOLYLINE
5
116
100
AcDbEntity
8
0
100
AcDbPolyline
90
8
70
1
43
0.0
10
-74.000000000000014
20
-222.00000000000017
42
0.41421356237307944
10
-75.000000000000043
20
-221.00000000000009
10
-77.999999999999957
20
-221.00000000000009
42
0.414213562373069
10
-79.000000000000028
20
-222.00000000000017
10
-78.999999999999986
20
-228.00000000000011
42
0.41421356237310802
10
-77.999999999999957
20
-229.00000000000009
10
-75.000000000000028
20
-229.00000000000011
42
0.41421356237310281
10
-74
20
-228.00000000000011
0
LWPOLYLINE
5
117
100
AcDbEntity
8
0
100
AcDbPolyline
90
8
70
1
43
0.0
10
179.00000000000006
20
-11.000000000000039
42
0.41421356237311063
10
178
20
-12.000000000000071
10
178
20
-17.999999999999968
42
0.41421356237312235
10
179.00000000000009
20
-19.000000000000018
10
182
20
-19.000000000000007
42
0.41421356237312235
10
183
20
-17.999999999999968
10
183
20
-12.000000000000075
42
0.41421356237306184
10
182
20
-11.000000000000023
0
ENDSEC
0
SECTION
2
OBJECTS
0
DICTIONARY
5
C
100
AcDbDictionary
3
ACAD_GROUP
350
D
3
ACAD_MLINESTYLE
350
17
0
DICTIONARY
5
D
100
AcDbDictionary
0
DICTIONARY
5
1A
330
C
100
AcDbDictionary
0
DICTIONARY
5
17
100
AcDbDictionary
0
ENDSEC
0
EOF
